PathFileType	4	(X/Y/Z)	/Users/itak/Documents/Research/Walk-IL/dataset/trc/00509_00183.trc
DataRate	CameraRate	NumFrames	NumMarkers	Units	OrigDataRate	OrigDataStartFrame	OrigNumFrames
100.000000	100.000000	4	53	mm	100.000000	137	366
Frame#	Time	RPSI			LPSI			L3			STRN			T10			C7			CLAV			RBAK			LBAK			LSHO			LUPA			LAEL			LAOL			LWTS			LWPS			LFRA			LIFD			LHPS			LHTS			RSHO			RUPA			RAEL			RAOL			RWTS			RWPS			RFRA			RIFD			RHTS			RHPS			RBHD			LFHD			RFHD			LBHD			LHIP			RHIP			RASI			LASI			LKNE			LTHI			LANK			LTIP			LTOE			LMT1			LMT5			LHEE			RKNE			RTHI			RANK			RTIP			RTOE			RMT1			RMT5			RHEE			
		X1	Y1	Z1	X2	Y2	Z2	X3	Y3	Z3	X4	Y4	Z4	X5	Y5	Z5	X6	Y6	Z6	X7	Y7	Z7	X8	Y8	Z8	X9	Y9	Z9	X10	Y10	Z10	X11	Y11	Z11	X12	Y12	Z12	X13	Y13	Z13	X14	Y14	Z14	X15	Y15	Z15	X16	Y16	Z16	X17	Y17	Z17	X18	Y18	Z18	X19	Y19	Z19	X20	Y20	Z20	X21	Y21	Z21	X22	Y22	Z22	X23	Y23	Z23	X24	Y24	Z24	X25	Y25	Z25	X26	Y26	Z26	X27	Y27	Z27	X28	Y28	Z28	X29	Y29	Z29	X30	Y30	Z30	X31	Y31	Z31	X32	Y32	Z32	X33	Y33	Z33	X34	Y34	Z34	X35	Y35	Z35	X36	Y36	Z36	X37	Y37	Z37	X38	Y38	Z38	X39	Y39	Z39	X40	Y40	Z40	X41	Y41	Z41	X42	Y42	Z42	X43	Y43	Z43	X44	Y44	Z44	X45	Y45	Z45	X46	Y46	Z46	X47	Y47	Z47	X48	Y48	Z48	X49	Y49	Z49	X50	Y50	Z50	X51	Y51	Z51	X52	Y52	Z52	X53	Y53	Z53	

138	1.37	-1007.867065429688	948.2432861328125	-445.4624328613281	-937.8283081054688	947.4432983398438	-547.3521728515625	-949.8231201171875	1022.473815917969	-501.2721862792969	-721.5416870117188	1133.693725585938	-379.3338623046875	-934.7443237304688	1124.08984375	-500.4105224609375	-850.0457153320312	1339.935791015625	-458.6957397460938	-734.3848266601562	1234.303344726562	-388.9148254394531	-958.2220458984375	1235.550048828125	-421.6996154785156	-836.1968994140625	1287.740234375	-549.613525390625	-710.2052612304688	1315.767700195312	-562.5325317382812	-697.4872436523438	1188.289916992188	-623.3468627929688	-668.5592041015625	1006.437072753906	-619.36572265625	-758.5794677734375	958.8346557617188	-620.5451049804688	-564.7576904296875	978.7378540039062	-449.8734130859375	-547.5527954101562	892.2353515625	-483.2591247558594	-624.0767822265625	975.1942138671875	-574.4534301757812	-477.6085815429688	896.597900390625	-346.2362670898438	-507.3141174316406	885.0784301757812	-442.1153869628906	-500.4747314453125	944.4032592773438	-413.8501586914062	-881.0191650390625	1326.886352539062	-304.1251831054688	-942.8856811523438	1272.26806640625	-276.6734924316406	-1055.828125	1028.735229492188	-274.2565612792969	-1071.56689453125	1022.373779296875	-338.6748962402344	-1001.302124023438	820.2645263671875	-229.6639556884766	-1089.25341796875	810.7857055664062	-248.879150390625	-1072.22900390625	976.548583984375	-269.348388671875	-1024.584106445312	662.3904418945312	-228.8968048095703	-1021.612182617188	728.786865234375	-202.1856689453125	-1084.88037109375	736.63623046875	-233.1451110839844	-867.6734619140625	1471.135986328125	-376.08984375	-691.4631958007812	1550.805541992188	-429.4805908203125	-764.4207153320312	1546.321533203125	-324.8621215820312	-788.5194702148438	1470.222900390625	-514.6016845703125	-796.5933837890625	851.5928344726562	-613.8408203125	-988.021240234375	845.563232421875	-282.4789428710938	-869.5776977539062	871.3331909179688	-299.830078125	-741.5628051757812	866.9581909179688	-504.4889221191406	-914.8603515625	447.6665344238281	-640.0164794921875	-851.2234497070312	594.1378173828125	-625.0664672851562	-1084.475341796875	46.46283340454102	-702.0271606445312	-976.5612182617188	314.7073059082031	-673.1619262695312	-947.9017333984375	42.48094177246094	-550.5152587890625	-1030.068481445312	44.06497955322266	-560.947265625	-985.4529418945312	45.42704010009766	-653.7980346679688	-1159.121704101562	40.29782485961914	-677.6187744140625	-801.7908325195312	505.104736328125	-251.9384613037109	-928.8915405273438	731.2966918945312	-260.8200988769531	-1036.428588867188	186.3116607666016	-384.6913757324219	-833.312744140625	384.4584045410156	-273.0414123535156	-874.2354125976562	85.30696868896484	-327.885009765625	-898.2889404296875	114.1030654907227	-391.7052612304688	-967.0966186523438	124.3644332885742	-322.8558349609375	-1051.619750976562	206.8365173339844	-451.0866088867188	
139	1.38	-1001.560974121094	946.3876342773438	-442.3068237304688	-930.6806030273438	945.16455078125	-543.687255859375	-942.373046875	1020.747375488281	-498.1399841308594	-715.7990112304688	1131.794311523438	-373.7632751464844	-927.1505126953125	1122.511474609375	-497.5312805175781	-842.76318359375	1338.229736328125	-454.5585327148438	-728.2262573242188	1232.478637695312	-383.2796936035156	-951.8103637695312	1234.0869140625	-419.3511657714844	-827.7035522460938	1285.989624023438	-545.318115234375	-701.529052734375	1314.050903320312	-556.5133666992188	-687.435546875	1186.081176757812	-616.25146484375	-658.2385864257812	1005.637023925781	-609.8465576171875	-747.21630859375	955.96533203125	-611.9959716796875	-556.9314575195312	985.4909057617188	-438.1672058105469	-537.6663208007812	898.1290893554688	-468.2530212402344	-614.0924072265625	976.7498779296875	-563.6891479492188	-469.7496643066406	908.7376708984375	-330.6217346191406	-497.9206848144531	893.2293090820312	-426.3864440917969	-492.5926208496094	953.5468139648438	-400.2106018066406	-876.221435546875	1325.040161132812	-300.4870300292969	-938.7288818359375	1270.729858398438	-274.3114318847656	-1054.270629882812	1028.681396484375	-275.2895202636719	-1067.846435546875	1022.097473144531	-340.2265625	-1004.565612792969	819.4515380859375	-227.7470855712891	-1091.883666992188	811.9931030273438	-250.1665191650391	-1071.664794921875	976.7551879882812	-270.6301574707031	-1032.615356445312	662.2562866210938	-226.3507537841797	-1028.477416992188	728.8512573242188	-200.1363372802734	-1090.298095703125	738.1786499023438	-233.3821716308594	-860.6044921875	1469.75390625	-371.0632629394531	-683.8758544921875	1548.654663085938	-423.8906555175781	-757.191162109375	1544.512329101562	-319.5185546875	-780.8692626953125	1468.537963867188	-509.3699035644531	-789.3751220703125	848.9763793945312	-609.0612182617188	-981.5894165039062	845.5911865234375	-278.1003723144531	-863.2313232421875	871.1196899414062	-295.3287963867188	-735.0625	864.5950927734375	-500.1684875488281	-910.6419067382812	446.5635681152344	-635.789794921875	-845.5036010742188	592.104248046875	-619.2993774414062	-1084.228759765625	47.38924407958984	-701.7275390625	-973.83251953125	314.3875732421875	-670.360107421875	-947.9840087890625	41.67818450927734	-549.9675903320312	-1030.06884765625	43.79827499389648	-560.6473999023438	-985.360107421875	45.49481964111328	-653.3612060546875	-1159.011352539062	41.97087478637695	-677.485107421875	-791.0972290039062	507.8448486328125	-243.5364837646484	-921.7059326171875	732.1762084960938	-255.1230163574219	-1021.976623535156	186.1503601074219	-375.3355712890625	-820.9849243164062	386.7841491699219	-263.9199829101562	-859.002685546875	86.52886199951172	-318.3124694824219	-883.158935546875	115.2890930175781	-382.2008361816406	-952.21142578125	124.7998733520508	-313.3869018554688	-1037.258056640625	206.5364074707031	-441.7358093261719	
140	1.39	-995.1022338867188	944.5543212890625	-439.0701904296875	-923.266357421875	942.8872680664062	-539.8644409179688	-934.7136840820312	1019.007751464844	-494.9452514648438	-709.9378662109375	1129.91943359375	-367.984375	-919.4061889648438	1121.028198242188	-494.651123046875	-835.2880249023438	1336.547729492188	-450.2896118164062	-721.9410400390625	1230.678833007812	-377.437255859375	-945.22802734375	1232.6240234375	-416.9776916503906	-818.9151611328125	1284.250366210938	-540.8389282226562	-692.62158203125	1312.373413085938	-550.209228515625	-677.149658203125	1183.95703125	-608.879150390625	-647.9512329101562	1004.875366210938	-600.1964111328125	-735.8530883789062	953.2293701171875	-603.270263671875	-549.4259643554688	991.9777221679688	-426.5623779296875	-528.3368530273438	903.83984375	-453.3179931640625	-604.2651977539062	978.2509765625	-552.8613891601562	-462.6368713378906	920.4639282226562	-315.2693481445312	-489.1387939453125	901.144287109375	-410.7933654785156	-485.199462890625	962.3306274414062	-386.7100830078125	-871.31982421875	1323.220703125	-296.7509155273438	-934.4472045898438	1269.228515625	-271.8905029296875	-1052.394409179688	1028.669921875	-276.3286743164062	-1063.877685546875	1021.838623046875	-341.6671447753906	-1007.503234863281	818.8328247070312	-225.8347015380859	-1094.0537109375	813.34423828125	-251.4448699951172	-1070.756958007812	977.0040893554688	-271.8980712890625	-1040.3427734375	662.4496459960938	-223.9870452880859	-1035.015869140625	729.19384765625	-198.2077941894531	-1095.2607421875	739.949951171875	-233.7433471679688	-853.4287109375	1468.375244140625	-365.8346252441406	-676.2327270507812	1546.56396484375	-418.1072082519531	-749.8789672851562	1542.734252929688	-313.97119140625	-773.1214599609375	1466.89208984375	-503.9359130859375	-781.89599609375	846.3544311523438	-604.048095703125	-975.0308227539062	845.6539306640625	-273.5513916015625	-856.7283325195312	870.9536743164062	-290.5973205566406	-728.356689453125	862.267822265625	-495.5239562988281	-906.21875	445.5295104980469	-631.1380004882812	-839.5120849609375	590.0608520507812	-613.0999755859375	-1083.989990234375	48.58650970458984	-701.3855590820312	-970.89404296875	314.1946411132812	-667.3154907226562	-948.01904296875	40.94021224975586	-549.4117431640625	-1030.031005859375	43.59990310668945	-560.3359375	-985.2640991210938	45.57793426513672	-652.8872680664062	-1158.880493164062	44.00028610229492	-677.2769165039062	-780.5137329101562	510.5468444824219	-235.0030364990234	-914.3404541015625	733.0631713867188	-249.1688232421875	-1007.0439453125	185.3624572753906	-365.5497436523438	-808.5684204101562	388.9137268066406	-254.5653686523438	-843.1290283203125	87.48932647705078	-308.1083374023438	-867.4425048828125	116.0715560913086	-372.1175537109375	-936.7559204101562	124.84375	-303.3722534179688	-1022.447021484375	205.4762115478516	-431.9884948730469	
141	1.4	-988.4417724609375	942.8228149414062	-435.6620788574219	-915.6015014648438	940.6549682617188	-535.8310546875	-926.873291015625	1017.304077148438	-491.6340026855469	-703.9110107421875	1128.097412109375	-361.9815063476562	-911.5032348632812	1119.650268554688	-491.7293395996094	-827.62060546875	1334.906616210938	-445.8509216308594	-715.5120849609375	1228.925170898438	-371.3777465820312	-938.4520874023438	1231.177856445312	-414.5370483398438	-809.868408203125	1282.552001953125	-536.16259765625	-683.4912719726562	1310.747314453125	-543.6277465820312	-666.664794921875	1181.926513671875	-601.2424926757812	-637.7003784179688	1004.149780273438	-590.443359375	-724.5117797851562	950.6403198242188	-594.4103393554688	-542.2196655273438	998.1397705078125	-415.0742797851562	-519.5245971679688	909.3180541992188	-438.4993896484375	-594.581298828125	979.679931640625	-541.9948120117188	-456.2280578613281	931.69775390625	-300.19189453125	-480.936279296875	908.7582397460938	-395.3673400878906	-478.2691650390625	970.6956176757812	-373.3529357910156	-866.2855834960938	1321.44677734375	-292.8930053710938	-930.0167236328125	1267.786010742188	-269.3921813964844	-1050.2138671875	1028.736206054688	-277.3501281738281	-1059.676025390625	1021.629455566406	-342.9766235351562	-1010.018371582031	818.4642333984375	-223.9039459228516	-1095.681030273438	814.8599243164062	-252.6282043457031	-1069.502563476562	977.3260498046875	-273.1403503417969	-1047.5703125	663.0017700195312	-221.818115234375	-1041.051635742188	729.8384399414062	-196.3962860107422	-1099.634765625	741.9599609375	-234.1618957519531	-846.1423950195312	1467.02587890625	-360.4036560058594	-668.5255126953125	1544.565185546875	-412.1302185058594	-742.484130859375	1541.017456054688	-308.2206420898438	-765.2911376953125	1465.299682617188	-498.2918395996094	-774.1655883789062	843.79248046875	-598.8020629882812	-968.3139038085938	845.7218017578125	-268.8090209960938	-850.0443725585938	870.80615234375	-285.6347961425781	-721.3909912109375	860.0638427734375	-490.4922790527344	-901.6000366210938	444.6283264160156	-626.1232299804688	-833.2821044921875	588.075439453125	-606.5664672851562	-1083.751098632812	50.08173370361328	-701.0057373046875	-967.751708984375	314.1860046386719	-664.0478515625	-948.0073852539062	40.29328536987305	-548.8861694335938	-1029.937377929688	43.48939895629883	-560.0202026367188	-985.14697265625	45.6783332824707	-652.4030151367188	-1158.713500976562	46.42083740234375	-676.9810791015625	-770.087890625	513.17578125	-226.3671875	-906.818359375	733.9403076171875	-242.9820098876953	-991.690185546875	184.0034484863281	-355.4472045898438	-796.1362915039062	390.8427429199219	-245.0207214355469	-826.7391357421875	88.19039154052734	-297.3242797851562	-851.220947265625	116.4599990844727	-361.5071105957031	-920.838623046875	124.5336608886719	-292.8973999023438	-1007.206237792969	203.7124786376953	-421.9712829589844	
